<svg width="242" height="166" viewBox="0 0 242 166" fill="none" xmlns="http://www.w3.org/2000/svg">
<path d="M175.341 100.412C175.349 108.808 173.537 117.114 170.02 124.796C166.504 132.478 161.361 139.367 154.922 145.022C153.13 146.596 151.247 148.071 149.281 149.438C146.758 151.193 144.102 152.762 141.336 154.134H141.307C140.717 154.432 140.118 154.716 139.513 154.991C139.238 155.121 138.967 155.243 138.687 155.364C136.937 156.137 135.143 156.831 133.303 157.446C131.853 157.912 130.364 158.378 128.861 158.76C120.191 160.983 111.128 161.394 102.279 159.966C101.231 159.799 100.196 159.608 99.167 159.389L98.297 159.198C95.6709 158.606 93.0878 157.85 90.5641 156.934C89.098 156.403 87.661 155.82 86.253 155.187C85.7068 154.94 85.1607 154.688 84.6242 154.427C84.2569 154.25 83.8944 154.069 83.5319 153.887C73.698 148.909 65.4133 141.501 59.5263 132.422C53.6392 123.343 50.3613 112.92 50.0282 102.218C49.6951 91.5166 52.3188 80.922 57.6305 71.5193C62.9424 62.1166 70.7514 54.2435 80.258 48.7063C89.7646 43.1692 100.627 40.1668 111.734 40.0068C122.84 39.8467 133.791 42.5346 143.465 47.7954C153.139 53.0561 161.189 60.7006 166.79 69.946C172.391 79.1915 175.342 89.7057 175.341 100.412Z" fill="url(#paint0_linear)"/>
<path d="M129.093 104.781C133.085 108.741 144.713 124.151 144.713 124.151L137.57 134.246L131.147 114.192L129.093 104.781Z" fill="url(#paint1_linear)"/>
<path d="M141.306 154.166C140.717 154.465 140.117 154.749 139.513 155.024C139.238 155.154 138.967 155.275 138.687 155.396C136.937 156.17 135.142 156.864 133.303 157.479C131.853 157.944 130.364 158.41 128.861 158.792C120.191 161.015 111.128 161.427 102.279 159.999C101.23 159.831 100.196 159.64 99.1667 159.421C95.3969 161.927 91.917 164.047 89.6117 165.011L89.8002 163.46L90.5831 156.971L92.3955 141.873L99.5775 135.178L83.4302 136.384C83.4302 136.384 85.1266 113.698 91.7479 109.03C98.3692 104.362 105.314 100.179 105.314 100.179C106.143 100.705 107.056 101.097 108.016 101.339C110.313 101.951 112.7 102.185 115.077 102.033C117.909 101.907 120.741 99.3682 120.877 99.2378C120.877 99.2378 125.323 100.09 129.093 104.8C130.973 107.224 132.323 109.992 133.061 112.934C133.989 116.376 135.637 124.417 137.512 134.13C138.74 140.382 140.03 147.314 141.306 154.166Z" fill="url(#paint2_linear)"/>
<path d="M144.714 124.17L151.605 131.954L175.843 108.765L176.761 104.018L181.595 99.9692L179.444 106.142V114.182C179.444 114.182 160.749 143.391 155.597 144.896C149.571 146.662 137.58 134.237 137.58 134.237L144.714 124.17Z" fill="url(#paint3_linear)"/>
<path d="M119.553 134.815L125.174 147.859L132.438 144.849L127.112 132.085L119.553 134.815Z" fill="#7E57C2"/>
<path d="M127.382 143.242C126.478 143.96 125.13 143.792 123.458 143.876C121.211 143.933 119.056 144.747 117.368 146.177C115.12 147.999 108.837 152.764 102.554 157.115C101.414 157.902 100.273 158.68 99.1714 159.444C95.4016 161.951 91.9218 164.07 89.6164 165.035C89.0103 165.325 88.3558 165.509 87.6832 165.58C84.4547 165.659 83.7635 159.137 83.5654 153.933C83.5026 152.205 83.4881 150.626 83.4542 149.485C83.3189 144.919 83.4542 136.44 83.4542 136.44L99.6015 135.229L97.8906 146.009L97.591 147.915V147.929L102.424 146.205L102.574 146.154L119.731 140.009L120.915 138.038L121.669 139.902H121.742L129.088 138.97C129.088 138.97 129.214 141.793 127.382 143.242Z" fill="url(#paint4_linear)"/>
<path d="M123.675 75.256C123.255 74.1473 122.892 73.3926 122.786 73.169V73.1131C122.786 73.1131 122.414 73.9983 119.611 73.784C116.807 73.5697 115.88 72.228 115.88 72.228C115.88 72.228 116.759 75.1349 113.419 76.3787C110.205 77.5806 108.939 76.8027 108.852 76.7468C109.021 76.9238 111.535 79.5139 109.867 81.5683C108.142 83.6972 104.261 83.2779 104.261 83.2779V83.3059C104.749 84.372 105.296 85.4123 105.899 86.4224C106.218 86.9535 106.532 87.4426 106.866 87.8992V87.9318C107.722 89.2739 108.878 90.415 110.249 91.2719C109.646 94.681 107.915 97.8105 105.314 100.193C106.189 100.633 107.092 101.02 108.016 101.353C109.819 102.01 112.24 102.662 114.401 102.48C116.904 102.222 119.217 101.073 120.887 99.2565L119.78 95.1617L118.784 91.4722C127.783 89.2594 125.309 79.635 123.675 75.256ZM118.282 91.6073L118.441 91.57L118.697 91.5002C118.324 91.6556 117.931 91.7591 117.528 91.8076C117.735 91.7564 117.948 91.7005 118.17 91.6352L118.282 91.6073Z" fill="url(#paint5_linear)"/>
<path d="M129.093 72.992C125.381 76.2809 123.777 75.3538 123.675 75.2653V75.256C123.255 74.1473 122.892 73.3926 122.791 73.169L122.767 73.1131C122.767 73.1131 122.39 73.9982 119.587 73.7839C116.783 73.5696 115.86 72.228 115.86 72.228C115.86 72.228 116.74 75.1349 113.4 76.3787C110.181 77.5806 108.915 76.8026 108.833 76.7467C109.002 76.9191 111.515 79.5092 109.848 81.5636C108.122 83.6925 104.242 83.2779 104.242 83.2779V83.3012C104.73 84.3689 105.277 85.4108 105.88 86.4224C106.202 86.9503 106.524 87.4426 106.847 87.8991V87.9317C106.847 87.9317 105.522 90.4427 103.159 90.3914C100.796 90.3402 100.742 88.0622 100.742 88.0622C100.742 88.0622 99.0701 90.9691 93.9035 88.1693C88.737 85.3696 92.1829 81.312 92.1829 81.312C92.1829 81.312 88.5195 78.6101 88.5195 74.5619C88.5195 70.5137 94.2225 67.4344 94.2225 67.4344C94.2225 67.4344 92.1829 62.734 95.6241 60.1439C99.0652 57.5538 104.237 59.31 104.237 59.31C104.237 59.31 104.135 53.2959 109.403 53.3938C114.671 53.4916 115.865 56.5988 115.865 56.5988C115.865 56.5988 120.601 53.0677 125.29 56.3938C129.978 59.72 128.049 65.5198 128.049 65.5198C128.049 65.5198 132.965 69.568 129.093 72.992Z" fill="url(#paint6_linear)"/>
<path opacity="0.15" d="M119.819 95.1477C117.571 94.4629 113.574 91.8495 113.574 91.8495C115.152 92.0101 116.745 91.9284 118.296 91.6072L118.456 91.57L118.765 91.4814H118.808L119.819 95.1477Z" fill="black"/>
<path opacity="0.15" d="M101.757 121.244L99.5772 135.22L97.8663 145.999L93.8838 149.19L102.549 146.157C102.549 146.157 100.302 139.971 101.757 121.244Z" fill="black"/>
<path opacity="0.15" d="M99.1572 159.421C100.187 159.64 101.221 159.83 102.27 159.998C102.323 159.043 102.42 158.079 102.555 157.115L99.1572 159.421Z" fill="black"/>
<g filter="url(#filter0_d)">
<path d="M81.0563 10.1343H55.2138C51.6477 10.1343 48.7568 12.9207 48.7568 16.358V41.2669C48.7568 44.7042 51.6477 47.4906 55.2138 47.4906H81.0563C84.6224 47.4906 87.5133 44.7042 87.5133 41.2669V16.358C87.5133 12.9207 84.6224 10.1343 81.0563 10.1343Z" fill="#56CCF2"/>
</g>
<path d="M77.8323 27.5067H73.9037L76.9561 24.5442L75.6278 23.2458L71.2375 27.5067H69.3533V25.678L73.7435 21.4172L72.4058 20.1279L69.3533 23.0904V19.2776H67.4691V23.0904L64.4167 20.1279L63.0789 21.4172L67.4691 25.678V27.5067H65.5849L61.1947 23.2458L59.8663 24.5442L62.9188 27.5067H58.9902V29.3353H62.9188L59.8663 32.2978L61.1947 33.5962L65.5849 29.3353H67.4691V31.164L63.0789 35.4248L64.4167 36.7141L67.4691 33.7516V37.5644H69.3533V33.7516L72.4058 36.7141L73.7435 35.4248L69.3533 31.164V29.3353H71.2375L75.6278 33.5962L76.9561 32.2978L73.9037 29.3353H77.8323V27.5067Z" fill="white"/>
<g filter="url(#filter1_d)">
<path d="M214.705 98.3113H188.862C185.296 98.3113 182.405 101.098 182.405 104.535V129.444C182.405 132.881 185.296 135.668 188.862 135.668H214.705C218.271 135.668 221.162 132.881 221.162 129.444V104.535C221.162 101.098 218.271 98.3113 214.705 98.3113Z" fill="#F2C94C"/>
</g>
<path d="M210.668 113.855C210.668 109.283 206.9 105.626 202.19 105.626C197.479 105.626 193.711 109.283 193.711 113.855C193.711 116.689 195.218 119.25 197.479 120.712V122.998C197.479 124.187 198.233 125.193 199.363 125.558V125.741C199.363 127.296 200.588 128.484 202.19 128.484C203.791 128.484 205.016 127.296 205.016 125.741V125.558C206.146 125.193 206.9 124.187 206.9 122.998V120.712C209.161 119.25 210.668 116.689 210.668 113.855ZM195.595 113.855C195.595 110.289 198.515 107.455 202.19 107.455C205.864 107.455 208.784 110.289 208.784 113.855C208.784 117.055 206.335 119.707 203.132 120.164V117.878L204.733 116.324C205.11 115.958 205.11 115.409 204.733 115.044C204.356 114.678 203.791 114.678 203.414 115.044L202.19 116.232L200.965 115.044C200.588 114.678 200.023 114.678 199.646 115.044C199.269 115.409 199.269 115.958 199.646 116.324L201.247 117.878V120.164C198.044 119.707 195.595 117.055 195.595 113.855ZM202.19 126.656C201.624 126.656 201.247 126.29 201.247 125.741H203.132C203.132 126.29 202.755 126.656 202.19 126.656ZM205.016 122.998C205.016 123.547 204.639 123.913 204.074 123.913H200.305C199.74 123.913 199.363 123.547 199.363 122.998V121.627C200.211 121.901 201.153 122.084 202.19 122.084C203.226 122.084 204.168 121.901 205.016 121.627V122.998Z" fill="white"/>
<g filter="url(#filter2_d)">
<path d="M42.2995 98.3113H16.457C12.8909 98.3113 10 101.098 10 104.535V129.444C10 132.881 12.8909 135.668 16.457 135.668H42.2995C45.8656 135.668 48.7565 132.881 48.7565 129.444V104.535C48.7565 101.098 45.8656 98.3113 42.2995 98.3113Z" fill="#F58A8A"/>
</g>
<path d="M35.4371 113.855H34.495V112.026C34.495 109.503 32.3847 107.454 29.7845 107.454C27.1843 107.454 25.074 109.503 25.074 112.026V113.855H24.1319C23.0955 113.855 22.2476 114.678 22.2476 115.684V124.827C22.2476 125.833 23.0955 126.656 24.1319 126.656H35.4371C36.4734 126.656 37.3213 125.833 37.3213 124.827V115.684C37.3213 114.678 36.4734 113.855 35.4371 113.855ZM29.7845 122.084C28.7482 122.084 27.9003 121.261 27.9003 120.255C27.9003 119.249 28.7482 118.427 29.7845 118.427C30.8208 118.427 31.6687 119.249 31.6687 120.255C31.6687 121.261 30.8208 122.084 29.7845 122.084ZM32.705 113.855H26.864V112.026C26.864 110.463 28.1735 109.192 29.7845 109.192C31.3955 109.192 32.705 110.463 32.705 112.026V113.855Z" fill="white"/>
<g filter="url(#filter3_d)">
<path d="M172.31 10.1343H146.468C142.902 10.1343 140.011 12.9207 140.011 16.358V41.2669C140.011 44.7042 142.902 47.4906 146.468 47.4906H172.31C175.876 47.4906 178.767 44.7042 178.767 41.2669V16.358C178.767 12.9207 175.876 10.1343 172.31 10.1343Z" fill="#6FCF97"/>
</g>
<path d="M164.798 23.7549H149.412V33.0874H164.798V23.7549Z" fill="white"/>
<path d="M168.945 25.6118L165.549 26.9971V29.8842L168.945 31.2695H170.177V25.6118H168.945Z" fill="white"/>
<defs>
<filter id="filter0_d" x="38.7568" y="0.134277" width="68.7565" height="67.3563" filterUnits="userSpaceOnUse" color-interpolation-filters="sRGB">
<feFlood flood-opacity="0" result="BackgroundImageFix"/>
<feColorMatrix in="SourceAlpha" type="matrix" values="0 0 0 0 0 0 0 0 0 0 0 0 0 0 0 0 0 0 127 0"/>
<feOffset dx="5" dy="5"/>
<feGaussianBlur stdDeviation="7.5"/>
<feColorMatrix type="matrix" values="0 0 0 0 0 0 0 0 0 0 0 0 0 0 0 0 0 0 0.15 0"/>
<feBlend mode="normal" in2="BackgroundImageFix" result="effect1_dropShadow"/>
<feBlend mode="normal" in="SourceGraphic" in2="effect1_dropShadow" result="shape"/>
</filter>
<filter id="filter1_d" x="172.405" y="88.3113" width="68.757" height="67.3568" filterUnits="userSpaceOnUse" color-interpolation-filters="sRGB">
<feFlood flood-opacity="0" result="BackgroundImageFix"/>
<feColorMatrix in="SourceAlpha" type="matrix" values="0 0 0 0 0 0 0 0 0 0 0 0 0 0 0 0 0 0 127 0"/>
<feOffset dx="5" dy="5"/>
<feGaussianBlur stdDeviation="7.5"/>
<feColorMatrix type="matrix" values="0 0 0 0 0 0 0 0 0 0 0 0 0 0 0 0 0 0 0.15 0"/>
<feBlend mode="normal" in2="BackgroundImageFix" result="effect1_dropShadow"/>
<feBlend mode="normal" in="SourceGraphic" in2="effect1_dropShadow" result="shape"/>
</filter>
<filter id="filter2_d" x="0" y="88.3113" width="68.7565" height="67.3568" filterUnits="userSpaceOnUse" color-interpolation-filters="sRGB">
<feFlood flood-opacity="0" result="BackgroundImageFix"/>
<feColorMatrix in="SourceAlpha" type="matrix" values="0 0 0 0 0 0 0 0 0 0 0 0 0 0 0 0 0 0 127 0"/>
<feOffset dx="5" dy="5"/>
<feGaussianBlur stdDeviation="7.5"/>
<feColorMatrix type="matrix" values="0 0 0 0 0 0 0 0 0 0 0 0 0 0 0 0 0 0 0.15 0"/>
<feBlend mode="normal" in2="BackgroundImageFix" result="effect1_dropShadow"/>
<feBlend mode="normal" in="SourceGraphic" in2="effect1_dropShadow" result="shape"/>
</filter>
<filter id="filter3_d" x="130.011" y="0.134277" width="68.756" height="67.3563" filterUnits="userSpaceOnUse" color-interpolation-filters="sRGB">
<feFlood flood-opacity="0" result="BackgroundImageFix"/>
<feColorMatrix in="SourceAlpha" type="matrix" values="0 0 0 0 0 0 0 0 0 0 0 0 0 0 0 0 0 0 127 0"/>
<feOffset dx="5" dy="5"/>
<feGaussianBlur stdDeviation="7.5"/>
<feColorMatrix type="matrix" values="0 0 0 0 0 0 0 0 0 0 0 0 0 0 0 0 0 0 0.15 0"/>
<feBlend mode="normal" in2="BackgroundImageFix" result="effect1_dropShadow"/>
<feBlend mode="normal" in="SourceGraphic" in2="effect1_dropShadow" result="shape"/>
</filter>
<linearGradient id="paint0_linear" x1="112.928" y1="46.5594" x2="110.936" y2="165.618" gradientUnits="userSpaceOnUse">
<stop stop-color="white" stop-opacity="0"/>
<stop offset="1" stop-color="#64B5F6" stop-opacity="0.6"/>
</linearGradient>
<linearGradient id="paint1_linear" x1="124.361" y1="100.78" x2="140.697" y2="130.561" gradientUnits="userSpaceOnUse">
<stop stop-color="#E57373"/>
<stop offset="1" stop-color="#AD1457"/>
</linearGradient>
<linearGradient id="paint2_linear" x1="26509.7" y1="36361.9" x2="24809.2" y2="45069.2" gradientUnits="userSpaceOnUse">
<stop stop-color="#E57373"/>
<stop offset="1" stop-color="#AD1457"/>
</linearGradient>
<linearGradient id="paint3_linear" x1="188.153" y1="111.546" x2="142.207" y2="139.161" gradientUnits="userSpaceOnUse">
<stop stop-color="#FFF8E1"/>
<stop offset="1" stop-color="#FFCC80"/>
</linearGradient>
<linearGradient id="paint4_linear" x1="20396.6" y1="20384" x2="17928.5" y2="18657.4" gradientUnits="userSpaceOnUse">
<stop stop-color="#FFF8E1"/>
<stop offset="1" stop-color="#FFCC80"/>
</linearGradient>
<linearGradient id="paint5_linear" x1="128.407" y1="80" x2="103.159" y2="90.7873" gradientUnits="userSpaceOnUse">
<stop stop-color="#FFF8E1"/>
<stop offset="1" stop-color="#FFCC80"/>
</linearGradient>
<linearGradient id="paint6_linear" x1="122.549" y1="53.2167" x2="94.0759" y2="93.1312" gradientUnits="userSpaceOnUse">
<stop stop-color="#FFB74D"/>
<stop offset="1" stop-color="#F4511E"/>
</linearGradient>
</defs>
</svg>
